# xmcd
#
# Track frame offsets: 
#        150
#        13271
#        26783
#        40576
#        53762
#        66822
#        79732
#        93532
#        105672
#        118955
#        132587
#        144044
#        156267
#        167735
#        179842
#        192959
#        204361
#        216334
#
# Disc length: 3029 seconds
#
# Revision: 1
# Processed by: cddbd v1.5.1PL0 Copyright (c) Steve Scherf et al.
# Submitted via: ExactAudioCopy v0.95a5
#
DISCID=070bd312
DTITLE=Robert Johnson - King Of The Delta Blues
DYEAR=2001
DGENRE=Blues
TTITLE0=Kindhearted Woman Blues
TTITLE1=I Believe I'll Dust My Broom
TTITLE2=Sweet Home Chicago
TTITLE3=Rambling On My Mind
TTITLE4=When You Got A Friend
TTITLE5=Come On In My Kitchen
TTITLE6=Terraplane Blues
TTITLE7=Phonograph Blues
TTITLE8=32-20 Blues
TTITLE9=They're Red Hot
TTITLE10=Dead Shrimp Blues
TTITLE11=Cross Road Blues
TTITLE12=Walking Blues
TTITLE13=Last Fair Deal Gone Down
TTITLE14=Preaching Blues (Up Jumped The Devil)
TTITLE15=Stone In My Passway
TTITLE16=I'm A Steady Rollin' Man
TTITLE17=From Four 'till Late
EXTD=
EXTT0=
EXTT1=
EXTT2=
EXTT3=
EXTT4=
EXTT5=
EXTT6=
EXTT7=
EXTT8=
EXTT9=
EXTT10=
EXTT11=
EXTT12=
EXTT13=
EXTT14=
EXTT15=
EXTT16=
EXTT17=
PLAYORDER=
